ffmpeg version 6.1 Copyright (c) 2000-2023 the FFmpeg developers
  built with Apple clang version 15.0.0 (clang-1500.1.0.2.5)
  configuration: --prefix=/opt/homebrew/Cellar/ffmpeg/6.1_1 --enable-shared --enable-pthreads --enable-version3 --cc=clang --host-cflags= --host-ldflags='-Wl,-ld_classic' --enable-ffplay --enable-gnutls --enable-gpl --enable-libaom --enable-libaribb24 --enable-libbluray --enable-libdav1d --enable-libharfbuzz --enable-libjxl --enable-libmp3lame --enable-libopus --enable-librav1e --enable-librist --enable-librubberband --enable-libsnappy --enable-libsrt --enable-libsvtav1 --enable-libtesseract --enable-libtheora --enable-libvidstab --enable-libvmaf --enable-libvorbis --enable-libvpx --enable-libwebp --enable-libx264 --enable-libx265 --enable-libxml2 --enable-libxvid --enable-lzma --enable-libfontconfig --enable-libfreetype --enable-frei0r --enable-libass --enable-libopencore-amrnb --enable-libopencore-amrwb --enable-libopenjpeg --enable-libspeex --enable-libsoxr --enable-libzmq --enable-libzimg --disable-libjack --disable-indev=jack --enable-videotoolbox --enable-audiotoolbox --enable-neon
  libavutil      58. 29.100 / 58. 29.100
  libavcodec     60. 31.102 / 60. 31.102
  libavformat    60. 16.100 / 60. 16.100
  libavdevice    60.  3.100 / 60.  3.100
  libavfilter     9. 12.100 /  9. 12.100
  libswscale      7.  5.100 /  7.  5.100
  libswresample   4. 12.100 /  4. 12.100
  libpostproc    57.  3.100 / 57.  3.100
Input #0, mp3, from 'gen.mp3':
  Metadata:
    album           : NIV Suchet (01) Genesis
    artist          : Moses, Prophets, Jesus/David Suchet
    encoder         : Lavf58.29.100
    title           : NIV Suchet (01) Genesis
    track           : 01/1
    TDTG            : 2023-10-24T07:51:46
    genre           : Bible
    album_artist    : Moses, Prophets, Jesus/David Suchet
    date            : 2014
  Duration: 04:04:09.81, start: 0.025056, bitrate: 128 kb/s
  Stream #0:0: Audio: mp3, 44100 Hz, stereo, fltp, 128 kb/s
    Metadata:
      encoder         : Lavc58.54
  Stream #0:1: Video: mjpeg (Baseline), yuvj420p(pc, bt470bg/unknown/unknown), 498x500 [SAR 1:1 DAR 249:250], 90k tbr, 90k tbn (attached pic)
    Metadata:
      title           : Cover
      comment         : Cover (front)
Stream mapping:
  Stream #0:1 -> #0:0 (mjpeg (native) -> wrapped_avframe (native))
  Stream #0:0 -> #0:1 (mp3 (mp3float) -> pcm_s16le (native))
Press [q] to stop, [?] for help
Output #0, null, to 'pipe:':
  Metadata:
    album           : NIV Suchet (01) Genesis
    artist          : Moses, Prophets, Jesus/David Suchet
    date            : 2014
    title           : NIV Suchet (01) Genesis
    track           : 01/1
    TDTG            : 2023-10-24T07:51:46
    genre           : Bible
    album_artist    : Moses, Prophets, Jesus/David Suchet
    encoder         : Lavf60.16.100
  Stream #0:0: Video: wrapped_avframe, yuvj420p(pc, bt470bg/unknown/unknown, progressive), 498x500 [SAR 1:1 DAR 249:250], q=2-31, 200 kb/s, 90k fps, 90k tbn (attached pic)
    Metadata:
      title           : Cover
      comment         : Cover (front)
      encoder         : Lavc60.31.102 wrapped_avframe
  Stream #0:1: Audio: pcm_s16le, 44100 Hz, stereo, s16, 1411 kb/s
    Metadata:
      encoder         : Lavc60.31.102 pcm_s16le
frame=    0 fps=0.0 q=-0.0 size=       0kB time=00:00:00.00 bitrate=N/A speed=   0x    frame=    1 fps=0.0 q=-0.0 size=N/A time=00:04:56.30 bitrate=N/A speed= 590x    [silencedetect @ 0x600000754240] silence_start: 344.017
[silencedetect @ 0x600000754240] silence_end: 347.806 | silence_duration: 3.78887
[silencedetect @ 0x600000754240] silence_start: 576.138
[silencedetect @ 0x600000754240] silence_end: 579.895 | silence_duration: 3.75707
frame=    1 fps=1.0 q=-0.0 size=N/A time=00:09:54.46 bitrate=N/A speed= 593x    [silencedetect @ 0x600000754240] silence_start: 829.82
[silencedetect @ 0x600000754240] silence_end: 833.894 | silence_duration: 4.07399
frame=    1 fps=0.7 q=-0.0 size=N/A time=00:14:55.29 bitrate=N/A speed= 596x    [silencedetect @ 0x600000754240] silence_start: 1088.2
[silencedetect @ 0x600000754240] silence_end: 1092.18 | silence_duration: 3.97259
frame=    1 fps=0.5 q=-0.0 size=N/A time=00:19:50.13 bitrate=N/A speed= 594x    [silencedetect @ 0x600000754240] silence_start: 1322
[silencedetect @ 0x600000754240] silence_end: 1326.35 | silence_duration: 4.34968
frame=    1 fps=0.4 q=-0.0 size=N/A time=00:24:39.08 bitrate=N/A speed= 591x    [silencedetect @ 0x600000754240] silence_start: 1533.25
[silencedetect @ 0x600000754240] silence_end: 1537.26 | silence_duration: 4.01005
[silencedetect @ 0x600000754240] silence_start: 1766.32
[silencedetect @ 0x600000754240] silence_end: 1770.28 | silence_duration: 3.96392
frame=    1 fps=0.3 q=-0.0 size=N/A time=00:29:32.93 bitrate=N/A speed= 591x    [silencedetect @ 0x600000754240] silence_start: 1978.3
[silencedetect @ 0x600000754240] silence_end: 1982.56 | silence_duration: 4.26154
frame=    1 fps=0.3 q=-0.0 size=N/A time=00:34:23.67 bitrate=N/A speed= 589x    [silencedetect @ 0x600000754240] silence_start: 2094.81
[silencedetect @ 0x600000754240] silence_end: 2098.11 | silence_duration: 3.30839
[silencedetect @ 0x600000754240] silence_start: 2162
[silencedetect @ 0x600000754240] silence_end: 2165.22 | silence_duration: 3.2119
[silencedetect @ 0x600000754240] silence_start: 2254.03
[silencedetect @ 0x600000754240] silence_end: 2258.12 | silence_duration: 4.0946
frame=    1 fps=0.2 q=-0.0 size=N/A time=00:39:20.26 bitrate=N/A speed= 590x    [silencedetect @ 0x600000754240] silence_start: 2486.75
[silencedetect @ 0x600000754240] silence_end: 2490.42 | silence_duration: 3.67068
frame=    1 fps=0.2 q=-0.0 size=N/A time=00:44:18.32 bitrate=N/A speed= 590x    [silencedetect @ 0x600000754240] silence_start: 2741.82
[silencedetect @ 0x600000754240] silence_end: 2745.72 | silence_duration: 3.89837
[silencedetect @ 0x600000754240] silence_start: 2930.69
[silencedetect @ 0x600000754240] silence_end: 2934.81 | silence_duration: 4.1205
frame=    1 fps=0.2 q=-0.0 size=N/A time=00:49:17.19 bitrate=N/A speed= 591x    [silencedetect @ 0x600000754240] silence_start: 3084.01
[silencedetect @ 0x600000754240] silence_end: 3087.68 | silence_duration: 3.66748
frame=    1 fps=0.2 q=-0.0 size=N/A time=00:54:17.83 bitrate=N/A speed= 592x    [silencedetect @ 0x600000754240] silence_start: 3330.8
[silencedetect @ 0x600000754240] silence_end: 3334.63 | silence_duration: 3.8341
[silencedetect @ 0x600000754240] silence_start: 3525.83
[silencedetect @ 0x600000754240] silence_end: 3529.65 | silence_duration: 3.82388
frame=    1 fps=0.2 q=-0.0 size=N/A time=00:59:15.39 bitrate=N/A speed= 592x    [silencedetect @ 0x600000754240] silence_start: 3688.16
[silencedetect @ 0x600000754240] silence_end: 3691.97 | silence_duration: 3.809
frame=    1 fps=0.2 q=-0.0 size=N/A time=01:04:15.02 bitrate=N/A speed= 593x    [silencedetect @ 0x600000754240] silence_start: 3974.07
[silencedetect @ 0x600000754240] silence_end: 3977.98 | silence_duration: 3.90544
frame=    1 fps=0.1 q=-0.0 size=N/A time=01:09:13.73 bitrate=N/A speed= 593x    [silencedetect @ 0x600000754240] silence_start: 4322.61
[silencedetect @ 0x600000754240] silence_end: 4326.45 | silence_duration: 3.84186
frame=    1 fps=0.1 q=-0.0 size=N/A time=01:14:13.98 bitrate=N/A speed= 594x    [silencedetect @ 0x600000754240] silence_start: 4709.98
[silencedetect @ 0x600000754240] silence_end: 4713.84 | silence_duration: 3.85612
frame=    1 fps=0.1 q=-0.0 size=N/A time=01:19:15.09 bitrate=N/A speed= 594x    [silencedetect @ 0x600000754240] silence_start: 4904.35
[silencedetect @ 0x600000754240] silence_end: 4908.16 | silence_duration: 3.81116
frame=    1 fps=0.1 q=-0.0 size=N/A time=01:24:15.26 bitrate=N/A speed= 595x    [silencedetect @ 0x600000754240] silence_start: 5181.54
[silencedetect @ 0x600000754240] silence_end: 5185.61 | silence_duration: 4.06279
frame=    1 fps=0.1 q=-0.0 size=N/A time=01:29:12.59 bitrate=N/A speed= 595x    [silencedetect @ 0x600000754240] silence_start: 5450
[silencedetect @ 0x600000754240] silence_end: 5453.89 | silence_duration: 3.88787
[silencedetect @ 0x600000754240] silence_start: 5628.44
[silencedetect @ 0x600000754240] silence_end: 5632.77 | silence_duration: 4.33331
frame=    1 fps=0.1 q=-0.0 size=N/A time=01:34:11.54 bitrate=N/A speed= 595x    frame=    1 fps=0.1 q=-0.0 size=N/A time=01:39:14.56 bitrate=N/A speed= 595x    frame=    1 fps=0.1 q=-0.0 size=N/A time=01:44:14.83 bitrate=N/A speed= 596x    [silencedetect @ 0x600000754240] silence_start: 6258.28
[silencedetect @ 0x600000754240] silence_end: 6262.1 | silence_duration: 3.81766
[silencedetect @ 0x600000754240] silence_start: 6551.4
frame=    1 fps=0.1 q=-0.0 size=N/A time=01:49:14.98 bitrate=N/A speed= 596x    [silencedetect @ 0x600000754240] silence_end: 6555.27 | silence_duration: 3.86828
frame=    1 fps=0.1 q=-0.0 size=N/A time=01:54:17.22 bitrate=N/A speed= 596x    [silencedetect @ 0x600000754240] silence_start: 6876.46
[silencedetect @ 0x600000754240] silence_end: 6880.22 | silence_duration: 3.75433
frame=    1 fps=0.1 q=-0.0 size=N/A time=01:58:55.21 bitrate=N/A speed= 594x    [silencedetect @ 0x600000754240] silence_start: 7354.58
[silencedetect @ 0x600000754240] silence_end: 7358.51 | silence_duration: 3.9322
frame=    1 fps=0.1 q=-0.0 size=N/A time=02:03:46.90 bitrate=N/A speed= 594x    [silencedetect @ 0x600000754240] silence_start: 7573.51
[silencedetect @ 0x600000754240] silence_end: 7577.8 | silence_duration: 4.29351
frame=    1 fps=0.1 q=-0.0 size=N/A time=02:08:36.93 bitrate=N/A speed= 593x    [silencedetect @ 0x600000754240] silence_start: 7892.55
[silencedetect @ 0x600000754240] silence_end: 7896.43 | silence_duration: 3.87297
frame=    1 fps=0.1 q=-0.0 size=N/A time=02:13:20.23 bitrate=N/A speed= 592x    frame=    1 fps=0.1 q=-0.0 size=N/A time=02:18:13.38 bitrate=N/A speed= 592x    [silencedetect @ 0x600000754240] silence_start: 8300.69
[silencedetect @ 0x600000754240] silence_end: 8304.33 | silence_duration: 3.63751
frame=    1 fps=0.1 q=-0.0 size=N/A time=02:23:08.17 bitrate=N/A speed= 592x    [silencedetect @ 0x600000754240] silence_start: 8845.11
[silencedetect @ 0x600000754240] silence_end: 8849.05 | silence_duration: 3.94005
frame=    1 fps=0.1 q=-0.0 size=N/A time=02:28:07.01 bitrate=N/A speed= 592x    [silencedetect @ 0x600000754240] silence_start: 9174.1
[silencedetect @ 0x600000754240] silence_end: 9178 | silence_duration: 3.90562
frame=    1 fps=0.1 q=-0.0 size=N/A time=02:33:05.98 bitrate=N/A speed= 593x    [silencedetect @ 0x600000754240] silence_start: 9377.42
[silencedetect @ 0x600000754240] silence_end: 9381.14 | silence_duration: 3.72794
frame=    1 fps=0.1 q=-0.0 size=N/A time=02:38:05.27 bitrate=N/A speed= 593x    [silencedetect @ 0x600000754240] silence_start: 9652.85
[silencedetect @ 0x600000754240] silence_end: 9656.92 | silence_duration: 4.06887
frame=    1 fps=0.1 q=-0.0 size=N/A time=02:43:05.52 bitrate=N/A speed= 593x    [silencedetect @ 0x600000754240] silence_start: 9840.04
[silencedetect @ 0x600000754240] silence_end: 9843.5 | silence_duration: 3.46408
[silencedetect @ 0x600000754240] silence_start: 9936.17
[silencedetect @ 0x600000754240] silence_end: 9939.95 | silence_duration: 3.77522
frame=    1 fps=0.1 q=-0.0 size=N/A time=02:48:02.09 bitrate=N/A speed= 593x    [silencedetect @ 0x600000754240] silence_start: 10295.8
[silencedetect @ 0x600000754240] silence_end: 10299.4 | silence_duration: 3.61234
frame=    1 fps=0.1 q=-0.0 size=N/A time=02:53:02.52 bitrate=N/A speed= 593x    frame=    1 fps=0.1 q=-0.0 size=N/A time=02:58:01.75 bitrate=N/A speed= 593x    [silencedetect @ 0x600000754240] silence_start: 10928.3
[silencedetect @ 0x600000754240] silence_end: 10932 | silence_duration: 3.69816
frame=    1 fps=0.1 q=-0.0 size=N/A time=03:02:58.71 bitrate=N/A speed= 593x    [silencedetect @ 0x600000754240] silence_start: 11136.8
[silencedetect @ 0x600000754240] silence_end: 11140.4 | silence_duration: 3.6251
frame=    1 fps=0.1 q=-0.0 size=N/A time=03:07:57.66 bitrate=N/A speed= 593x    [silencedetect @ 0x600000754240] silence_start: 11332.7
[silencedetect @ 0x600000754240] silence_end: 11336.3 | silence_duration: 3.63333
frame=    1 fps=0.1 q=-0.0 size=N/A time=03:12:46.96 bitrate=N/A speed= 593x    [silencedetect @ 0x600000754240] silence_start: 11835.4
[silencedetect @ 0x600000754240] silence_end: 11839.1 | silence_duration: 3.65989
frame=    1 fps=0.0 q=-0.0 size=N/A time=03:17:46.61 bitrate=N/A speed= 593x    frame=    1 fps=0.0 q=-0.0 size=N/A time=03:22:45.77 bitrate=N/A speed= 593x    [silencedetect @ 0x600000754240] silence_start: 12193.3
[silencedetect @ 0x600000754240] silence_end: 12196.9 | silence_duration: 3.63671
frame=    1 fps=0.0 q=-0.0 size=N/A time=03:27:45.21 bitrate=N/A speed= 593x    [silencedetect @ 0x600000754240] silence_start: 12540.3
[silencedetect @ 0x600000754240] silence_end: 12544.2 | silence_duration: 3.91605
frame=    1 fps=0.0 q=-0.0 size=N/A time=03:32:43.89 bitrate=N/A speed= 594x    [silencedetect @ 0x600000754240] silence_start: 12845.4
[silencedetect @ 0x600000754240] silence_end: 12848.9 | silence_duration: 3.51447
frame=    1 fps=0.0 q=-0.0 size=N/A time=03:37:43.70 bitrate=N/A speed= 594x    [silencedetect @ 0x600000754240] silence_start: 13121.3
[silencedetect @ 0x600000754240] silence_end: 13125.1 | silence_duration: 3.75166
frame=    1 fps=0.0 q=-0.0 size=N/A time=03:42:40.66 bitrate=N/A speed= 594x    [silencedetect @ 0x600000754240] silence_start: 13437.4
[silencedetect @ 0x600000754240] silence_end: 13441 | silence_duration: 3.60227
frame=    1 fps=0.0 q=-0.0 size=N/A time=03:47:39.37 bitrate=N/A speed= 594x    [silencedetect @ 0x600000754240] silence_start: 13778.7
[silencedetect @ 0x600000754240] silence_end: 13782.6 | silence_duration: 3.87111
frame=    1 fps=0.0 q=-0.0 size=N/A time=03:52:37.33 bitrate=N/A speed= 594x    [silencedetect @ 0x600000754240] silence_start: 14038.8
[silencedetect @ 0x600000754240] silence_end: 14042.5 | silence_duration: 3.69299
frame=    1 fps=0.0 q=-0.0 size=N/A time=03:57:35.49 bitrate=N/A speed= 594x    [silencedetect @ 0x600000754240] silence_start: 14371.3
[silencedetect @ 0x600000754240] silence_end: 14375.2 | silence_duration: 3.90431
frame=    1 fps=0.0 q=-0.0 size=N/A time=04:02:26.75 bitrate=N/A speed= 594x    [out#0/null @ 0x60000165c600] video:0kB audio:2523652kB subtitle:0kB other streams:0kB global headers:0kB muxing overhead: unknown
frame=    1 fps=0.0 q=-0.0 Lsize=N/A time=04:04:09.75 bitrate=N/A speed= 594x    
